<svg width="14" height="14" viewBox="0 0 14 14" fill="none" xmlns="http://www.w3.org/2000/svg">
<path d="M5.00004 0.333328V1.66666H9.00004V0.333328H10.3334V1.66666H13C13.3682 1.66666 13.6667 1.96514 13.6667 2.33333V13C13.6667 13.3682 13.3682 13.6667 13 13.6667H1.00004C0.631854 13.6667 0.333374 13.3682 0.333374 13V2.33333C0.333374 1.96514 0.631854 1.66666 1.00004 1.66666H3.66671V0.333328H5.00004ZM12.3334 7H1.66671V12.3333H12.3334V7ZM3.66671 2.99999H1.66671V5.66666H12.3334V2.99999H10.3334V4.33333H9.00004V2.99999H5.00004V4.33333H3.66671V2.99999Z" fill="black"/>
</svg>
